Run_20002
nRows=4
nColumns=173

# SIMM Motion File Header:
name Run_20002
datacolumns 173
datarows 4
otherdata 1
range 1.47000000 1.50000000
endheader
time	pelvis_tilt	pelvis_list	pelvis_rotation	pelvis_tx	pelvis_ty	pelvis_tz	hip_flexion_r	hip_adduction_r	hip_rotation_r	knee_angle_r	ankle_angle_r	hip_flexion_l	hip_adduction_l	hip_rotation_l	knee_angle_l	ankle_angle_l	lumbar_extension	lumbar_bending	lumbar_rotation	arm_flex_r	arm_add_r	arm_rot_r	elbow_flex_r	pro_sup_r	arm_flex_l	arm_add_l	arm_rot_l	elbow_flex_l	pro_sup_l	subtalar_angle_r	mtp_angle_r	subtalar_angle_l	mtp_angle_l	wrist_flex_r	wrist_dev_r	wrist_flex_l	wrist_dev_l	LASI_tx	LASI_ty	LASI_tz	RASI_tx	RASI_ty	RASI_tz	LPSI_tx	LPSI_ty	LPSI_tz	RPSI_tx	RPSI_ty	RPSI_tz	RTH1_tx	RTH1_ty	RTH1_tz	RTH2_tx	RTH2_ty	RTH2_tz	RTH3_tx	RTH3_ty	RTH3_tz	LTH1_tx	LTH1_ty	LTH1_tz	LTH2_tx	LTH2_ty	LTH2_tz	LTH3_tx	LTH3_ty	LTH3_tz	RTB1_tx	RTB1_ty	RTB1_tz	RTB2_tx	RTB2_ty	RTB2_tz	RTB3_tx	RTB3_ty	RTB3_tz	RLMAL_tx	RLMAL_ty	RLMAL_tz	RMMAL_tx	RMMAL_ty	RMMAL_tz	LTB1_tx	LTB1_ty	LTB1_tz	LTB2_tx	LTB2_ty	LTB2_tz	LTB3_tx	LTB3_ty	LTB3_tz	RCAL_tx	RCAL_ty	RCAL_tz	RTOE_tx	RTOE_ty	RTOE_tz	RMT5_tx	RMT5_ty	RMT5_tz	LCAL_tx	LCAL_ty	LCAL_tz	LTOE_tx	LTOE_ty	LTOE_tz	LMT5_tx	LMT5_ty	LMT5_tz	LACR_tx	LACR_ty	LACR_tz	RACR_tx	RACR_ty	RACR_tz	CLAV_tx	CLAV_ty	CLAV_tz	C7_tx	C7_ty	C7_tz	LPSH_tx	LPSH_ty	LPSH_tz	RUA1_tx	RUA1_ty	RUA1_tz	RUA2_tx	RUA2_ty	RUA2_tz	RUA3_tx	RUA3_ty	RUA3_tz	RLEL_tx	RLEL_ty	RLEL_tz	RMEL_tx	RMEL_ty	RMEL_tz	LUA1_tx	LUA1_ty	LUA1_tz	LUA2_tx	LUA2_ty	LUA2_tz	LUA3_tx	LUA3_ty	LUA3_tz	LLEL_tx	LLEL_ty	LLEL_tz	LMEL_tx	LMEL_ty	LMEL_tz	RFAsuperior_tx	RFAsuperior_ty	RFAsuperior_tz	RFAradius_tx	RFAradius_ty	RFAradius_tz	RFAulna_tx	RFAulna_ty	RFAulna_tz	LFAsuperior_tx	LFAsuperior_ty	LFAsuperior_tz	LFAradius_tx	LFAradius_ty	LFAradius_tz	LFAulna_tx	LFAulna_ty	LFAulna_tz
      1.47000000	      2.02029402	      1.46386130	     -2.55917313	      1.02858110	      0.98976983	     -0.50755084	     22.88996302	      6.60685750	     12.41590943	    -78.28935953	      8.63264091	     11.34516798	      4.47253082	      6.07915403	    -42.60636742	     28.12120209	    -12.42314519	     -4.99119310	      0.93388526	    -18.96598548	    -19.27543289	     -6.33839576	     71.35007696	    115.61057184	     -4.36352880	    -19.98228358	     -4.45028970	    121.20752846	     79.39146561	      0.00000000	      0.00000000	      0.00000000	      0.00000000	      0.00000000	      0.00000000	      0.00000000	      0.00000000	      1.04148185	      1.02649238	     -0.61913409	      1.03595778	      1.03105864	     -0.38615734	      0.87112598	      1.05517276	     -0.55356492	      0.86820298	      1.05085500	     -0.46561730	      1.02413093	      0.76742303	     -0.35550240	      1.11960268	      0.72656053	     -0.38597931	      1.08716749	      0.61096303	     -0.39057528	      0.97218846	      0.80697367	     -0.68168401	      1.06031274	      0.70804354	     -0.67424164	      1.02176124	      0.60253876	     -0.66484076	      1.06449605	      0.40008996	     -0.42568501	      0.99715928	      0.39830572	     -0.37974948	      0.91616646	      0.29673340	     -0.40642703	      0.80504036	      0.25516931	     -0.37939399	      0.83287248	      0.24226339	     -0.45912886	      1.03845922	      0.36831929	     -0.63066327	      0.92110258	      0.30909473	     -0.66547270	      0.93517862	      0.20433387	     -0.61836101	      0.74381361	      0.26924646	     -0.44405676	      0.88819933	      0.10550594	     -0.39998373	      0.82870634	      0.14722667	     -0.33330442	      0.76900154	      0.09212592	     -0.58080925	      0.99762824	      0.06814824	     -0.60451948	      0.93378985	      0.05664857	     -0.67230101	      1.01193437	      1.51303142	     -0.70185852	      1.01513050	      1.50957832	     -0.38390130	      1.08343450	      1.44464075	     -0.51511767	      0.96921680	      1.54074123	     -0.54372885	      0.93362267	      1.46961628	     -0.71322210	      0.95628651	      1.37919215	     -0.27632420	      0.87142596	      1.33545241	     -0.28549154	      0.87444007	      1.29046401	     -0.22949768	      0.87638836	      1.22769963	     -0.18884662	      0.84324895	      1.20414100	     -0.26868617	      0.95032374	      1.37238603	     -0.77278579	      0.90501604	      1.27849449	     -0.75897878	      0.93200246	      1.24061695	     -0.81822781	      0.95422805	      1.16840287	     -0.84227348	      0.92672543	      1.14700552	     -0.75773756	      0.89371302	      1.14397436	     -0.18330418	      1.03328778	      1.02544635	     -0.24332761	      1.01012684	      0.98934116	     -0.19169142	      1.03563835	      1.13674158	     -0.79825568	      1.16788987	      1.23373282	     -0.73223976	      1.18393974	      1.16648994	     -0.73580355
      1.48000000	      1.82114628	      0.84623311	     -3.23341643	      1.02943735	      0.99237462	     -0.50648364	     24.15878132	      7.26010034	     12.90490428	    -76.35495994	      9.07239439	      9.37463995	      3.78838526	      5.89611375	    -41.15167208	     28.45365748	    -11.95814818	     -4.21459740	      0.76602298	    -19.93522158	    -20.14596642	     -6.38799942	     71.14400013	    116.20094421	     -3.35123232	    -19.23581327	     -4.04674743	    123.40324343	     79.97007925	      0.00000000	      0.00000000	      0.00000000	      0.00000000	      0.00000000	      0.00000000	      0.00000000	      0.00000000	      1.04406645	      1.02783548	     -0.61910449	      1.03465573	      1.03470478	     -0.38519031	      0.87240373	      1.05718519	     -0.55443426	      0.86953821	      1.05333090	     -0.46721783	      1.02646284	      0.77234110	     -0.35379881	      1.12289527	      0.73377701	     -0.38437986	      1.09320480	      0.61734383	     -0.38842603	      0.96891243	      0.80843308	     -0.68060001	      1.05367951	      0.70722892	     -0.67213559	      1.01179486	      0.60268561	     -0.66374046	      1.07826839	      0.40380431	     -0.42326183	      1.01074990	      0.39883482	     -0.37753151	      0.93524554	      0.29277235	     -0.40453084	      0.82643549	      0.24522717	     -0.37746308	      0.85530064	      0.23386529	     -0.45687842	      1.02265287	      0.36756043	     -0.62941931	      0.90460327	      0.31008107	     -0.66452141	      0.91735317	      0.20525785	     -0.61816452	      0.76462038	      0.25568853	     -0.44216044	      0.91860064	      0.10100317	     -0.39756052	      0.85638162	      0.13894215	     -0.33113045	      0.74949989	      0.09307278	     -0.58105371	      0.97756721	      0.06811737	     -0.60446498	      0.91381782	      0.05696994	     -0.67223934	      1.01307293	      1.51725914	     -0.70069319	      1.01295604	      1.51186346	     -0.38365087	      1.08252497	      1.44734406	     -0.51432750	      0.96851567	      1.54337804	     -0.54338374	      0.93537610	      1.47318837	     -0.71405911	      0.95105607	      1.38387586	     -0.27529424	      0.86577956	      1.34099399	     -0.28484793	      0.86788794	      1.29666175	     -0.22823415	      0.86826157	      1.23427866	     -0.18697423	      0.83573726	      1.21033100	     -0.26692176	      0.95683061	      1.37579658	     -0.77339938	      0.91181615	      1.28156578	     -0.75909238	      0.94093319	      1.24248334	     -0.81599060	      0.96510244	      1.17030932	     -0.83800794	      0.93629571	      1.14991210	     -0.75310859	      0.88411543	      1.15057686	     -0.18005577	      1.02245563	      1.02827096	     -0.23710669	      0.99795647	      0.99394167	     -0.18472786	      1.04686168	      1.14399020	     -0.79120701	      1.17164749	      1.24932767	     -0.72340904	      1.19184979	      1.18318104	     -0.72579251
      1.49000000	      1.59229574	      0.21851477	     -3.82162892	      1.03031062	      0.99567413	     -0.50525360	     25.24633946	      7.88490858	     13.34153724	    -73.90734423	      9.47825523	      7.32588523	      3.10926895	      5.82272368	    -39.43942055	     28.36809683	    -11.47520798	     -3.41677078	      0.60298781	    -21.04098960	    -20.91966561	     -6.41558631	     71.49761020	    116.74054711	     -2.36280775	    -18.48699682	     -3.46625865	    125.78578365	     80.49687834	      0.00000000	      0.00000000	      0.00000000	      0.00000000	      0.00000000	      0.00000000	      0.00000000	      0.00000000	      1.04633554	      1.02993583	     -0.61869915	      1.03361244	      1.03892280	     -0.38418261	      0.87347521	      1.06002296	     -0.55501273	      0.87076014	      1.05665785	     -0.46829237	      1.02863771	      0.77782101	     -0.35182294	      1.12568721	      0.74117145	     -0.38262145	      1.09832113	      0.62414276	     -0.38600576	      0.96542657	      0.81052265	     -0.67940846	      1.04687575	      0.70706543	     -0.66981794	      1.00153497	      0.60371696	     -0.66265802	      1.09160766	      0.40770007	     -0.42122636	      1.02396399	      0.39907271	     -0.37489971	      0.95479813	      0.28849790	     -0.40223948	      0.84877179	      0.23455111	     -0.37532712	      0.87852290	      0.22493398	     -0.45442726	      1.00638752	      0.36774119	     -0.62832748	      0.88776411	      0.31182237	     -0.66378003	      0.89948472	      0.20683895	     -0.61803237	      0.78665100	      0.24098233	     -0.44024796	      0.95027255	      0.09679104	     -0.39477987	      0.88526490	      0.13055512	     -0.32877469	      0.73018860	      0.09477655	     -0.58156422	      0.95752077	      0.06815071	     -0.60435970	      0.89392569	      0.05721902	     -0.67193451	      1.01404693	      1.52219273	     -0.69917772	      1.01067588	      1.51512236	     -0.38323681	      1.08175378	      1.45086501	     -0.51318583	      0.96793076	      1.54670710	     -0.54274172	      0.93679277	      1.47755240	     -0.71423769	      0.94597136	      1.38955464	     -0.27429303	      0.86042357	      1.34778467	     -0.28394378	      0.86151270	      1.30375157	     -0.22710751	      0.86009066	      1.24173163	     -0.18563123	      0.82808919	      1.21770862	     -0.26573157	      0.96202951	      1.37968628	     -0.77279427	      0.91794944	      1.28513166	     -0.75854245	      0.94952116	      1.24549169	     -0.81313611	      0.97537263	      1.17335220	     -0.83325090	      0.94517621	      1.15392987	     -0.74827619	      0.87477274	      1.15824137	     -0.17777114	      1.01287126	      1.03284076	     -0.23281732	      0.98695700	      1.00037026	     -0.17967621	      1.05701059	      1.15259377	     -0.78343987	      1.17362561	      1.26608114	     -0.71430010	      1.19790187	      1.20130689	     -0.71513915
      1.50000000	      1.33445938	     -0.39929067	     -4.28215170	      1.03100946	      0.99952119	     -0.50381975	     26.16729770	      8.42975418	     13.67905447	    -70.96985411	      9.83117738	      5.29178112	      2.43702178	      5.84396523	    -37.61723610	     27.82489997	    -11.00461625	     -2.64085079	      0.43793926	    -22.25855917	    -21.48958218	     -6.64931309	     72.27096101	    116.89459792	     -1.33763590	    -17.77560399	     -2.60452276	    128.23241390	     80.92838956	      0.00000000	      0.00000000	      0.00000000	      0.00000000	      0.00000000	      0.00000000	      0.00000000	      0.00000000	      1.04802950	      1.03256753	     -0.61772758	      1.03281629	      1.04361366	     -0.38318927	      0.87434906	      1.06366551	     -0.55527990	      0.87133706	      1.06074964	     -0.46846760	      1.03068684	      0.78373018	     -0.34959763	      1.12802589	      0.74862182	     -0.38068454	      1.10241254	      0.63119460	     -0.38323337	      0.96179908	      0.81327887	     -0.67815185	      1.03990901	      0.70758179	     -0.66740687	      0.99091180	      0.60558498	     -0.66144974	      1.10432322	      0.41161525	     -0.41904882	      1.03681093	      0.39891384	     -0.37190538	      0.97482453	      0.28398964	     -0.39960856	      0.87214479	      0.22331418	     -0.37307654	      0.90274569	      0.21569806	     -0.45196835	      0.98985772	      0.36891781	     -0.62748058	      0.87079229	      0.31426212	     -0.66316482	      0.88163567	      0.20900056	     -0.61776495	      0.80999436	      0.22538029	     -0.43835706	      0.98307333	      0.09301379	     -0.39178151	      0.91533659	      0.12228270	     -0.32628788	      0.71113300	      0.09794306	     -0.58221278	      0.93758412	      0.06833562	     -0.60427568	      0.87414749	      0.05750327	     -0.67161218	      1.01479144	      1.52765136	     -0.69747695	      1.00838579	      1.51929835	     -0.38259771	      1.08110686	      1.45514519	     -0.51161366	      0.96743906	      1.55059501	     -0.54182706	      0.93798545	      1.48231656	     -0.71379773	      0.94127408	      1.39595304	     -0.27340076	      0.85552734	      1.35542174	     -0.28333365	      0.85519455	      1.31148970	     -0.22651668	      0.85192690	      1.24981197	     -0.18505919	      0.82057331	      1.22584761	     -0.26530079	      0.96592773	      1.38392725	     -0.77107679	      0.92345570	      1.28884401	     -0.75721331	      0.95774017	      1.24924964	     -0.80978634	      0.98513860	      1.17718511	     -0.82827095	      0.95313222	      1.15863383	     -0.74339258	      0.86579542	      1.16669804	     -0.17648266	      1.00442656	      1.03918645	     -0.22948259	      0.97712933	      1.00807870	     -0.17604605	      1.06606070	      1.16203718	     -0.77519222	      1.17391599	      1.28322479	     -0.70504077	      1.20198032	      1.22004012	     -0.70393768
